<svg version="1.1" id="Layer_1" xmlns="http://www.w3.org/2000/svg" xmlns:xlink="http://www.w3.org/1999/xlink" x="0px" y="0px"
	 width="100%" viewBox="0 0 300 300" enable-background="new 0 0 300 300" xml:space="preserve">
<path fill="#40A798" opacity="1.000000" stroke="none" 
	d="
M193.000000,301.000000 
	C128.666672,301.000000 64.833359,301.000000 1.000026,301.000000 
	C1.000017,201.000031 1.000017,101.000061 1.000009,1.000066 
	C100.999947,1.000044 200.999893,1.000044 300.999878,1.000022 
	C300.999939,100.999939 300.999939,200.999878 300.999969,300.999908 
	C265.166656,301.000000 229.333328,301.000000 193.000000,301.000000 
M133.984985,199.012054 
	C133.984985,199.012054 133.928757,199.061188 133.676544,199.669434 
	C133.401337,201.162994 133.126129,202.656540 132.850937,204.150116 
	C134.204102,204.347931 135.563110,204.740540 136.909149,204.700241 
	C139.223984,204.630951 141.669647,203.711380 143.803543,204.222031 
	C146.140991,204.781372 148.799164,206.224792 149.606461,203.317856 
	C150.067261,201.658691 147.921585,199.275864 146.950180,197.218567 
	C146.748962,196.792465 146.550690,196.364990 146.597961,196.466064 
	C151.442917,191.553314 156.061569,186.870026 160.921570,181.942017 
	C162.008011,182.927490 163.139099,184.141800 164.454987,185.103195 
	C166.461777,186.569397 169.492111,185.268295 169.591614,182.821335 
	C169.760849,178.659805 169.857056,174.470551 169.505325,170.333633 
	C169.435486,169.511993 167.232040,168.306198 165.980515,168.265762 
	C163.188721,168.175491 160.195175,169.429535 157.625076,168.781815 
	C155.157578,168.159927 153.060471,167.734238 152.373123,170.213547 
	C151.996277,171.572906 153.597366,173.523071 154.416245,175.151688 
	C154.770538,175.856369 155.401794,176.421799 156.857300,178.232147 
	C154.229919,180.355637 151.459976,182.233627 149.145477,184.563980 
	C146.713623,187.012512 144.717911,189.894211 142.481476,192.648361 
	C140.260406,190.548859 139.152206,189.551987 138.101578,188.497742 
	C135.828033,186.216507 133.345566,187.530136 133.035645,189.532440 
	C132.562759,192.587387 133.554779,195.869095 133.984985,199.012054 
M96.499802,188.587219 
	C103.164177,188.586105 109.831665,188.692856 116.490562,188.501358 
	C117.991631,188.458206 119.462791,187.375397 120.947716,186.771164 
	C119.549088,186.106888 118.202766,185.260437 116.734444,184.838867 
	C115.656815,184.529434 114.419258,184.776413 113.252975,184.776398 
	C89.094261,184.776001 64.934830,184.680679 40.777489,184.862320 
	C36.385323,184.895340 34.737629,183.902313 34.779213,179.123093 
	C35.008251,152.800415 34.883137,126.474701 34.901913,100.150047 
	C34.903057,98.546944 35.096733,96.943962 35.201790,95.326065 
	C112.686234,95.326065 189.704926,95.326065 266.798706,95.326065 
	C266.798706,125.193336 266.798706,154.620926 266.798706,184.495178 
	C264.564301,184.597565 262.618805,184.762894 260.673187,184.764297 
	C236.181259,184.782104 211.689316,184.774399 187.197388,184.780899 
	C185.699203,184.781296 184.159531,184.654922 182.721451,184.966858 
	C182.063614,185.109543 181.337524,186.111069 181.163986,186.846237 
	C181.069061,187.248352 181.979126,188.223938 182.582108,188.381409 
	C183.683105,188.668961 184.892685,188.579788 186.057007,188.580124 
	C212.548294,188.587692 239.039566,188.593216 265.530853,188.569794 
	C267.275146,188.568253 269.019226,188.332565 270.687012,188.211319 
	C270.687012,155.543671 270.687012,123.471466 270.687012,91.375717 
	C190.647690,91.375717 110.961449,91.375717 31.294174,91.375717 
	C31.294174,123.864784 31.294174,155.937576 31.294174,188.586945 
	C52.915009,188.586945 74.207405,188.586945 96.499802,188.587219 
M167.069748,129.194290 
	C167.069748,126.908737 167.069748,124.623192 167.069748,122.180069 
	C165.284500,122.180069 163.517120,121.710121 163.110901,122.255005 
	C160.078339,126.322510 157.315155,130.590851 154.500412,134.747726 
	C148.980347,131.903305 150.201736,121.910339 141.279907,122.043732 
	C141.279907,129.955154 141.279907,137.204132 141.279907,144.627686 
	C143.074631,144.627686 144.591827,144.627686 146.257538,144.627686 
	C146.507294,141.309616 146.730377,138.346039 146.953445,135.382462 
	C148.927734,136.643829 149.838272,137.987244 150.698135,139.362320 
	C153.773102,144.279800 154.507477,144.252243 157.651016,139.162186 
	C158.554932,137.698578 159.574844,136.306641 160.541565,134.881836 
	C160.899460,134.978790 161.257355,135.075745 161.615234,135.172699 
	C161.819382,138.348404 162.023529,141.524094 162.230225,144.739380 
	C164.028687,144.739380 165.460266,144.739380 167.184845,144.739380 
	C167.184845,139.679916 167.184845,134.885590 167.069748,129.194290 
M110.172401,127.126854 
	C108.877357,127.762474 106.503510,128.331818 106.459732,129.044312 
	C106.139702,134.253036 106.287270,139.490479 106.287270,144.744110 
	C108.530373,144.744110 109.962059,144.744110 111.967033,144.744110 
	C111.967033,141.874527 111.552567,139.163803 112.110718,136.670868 
	C112.491737,134.969086 114.230759,133.571350 115.362610,132.037659 
	C116.528465,133.557037 118.323174,134.932419 118.711868,136.629776 
	C119.285957,139.136688 118.860184,141.872559 118.860184,144.745087 
	C120.693169,144.745087 122.100204,144.745087 123.734467,144.745087 
	C123.934418,141.383560 123.774673,138.184616 124.469307,135.183395 
	C124.761864,133.919373 126.857819,133.072754 128.133987,132.036407 
	C129.068390,133.215637 130.630112,134.307083 130.809891,135.591904 
	C131.215347,138.489716 130.937210,141.483170 130.937210,144.645996 
	C133.057358,144.645996 134.580750,144.645996 136.387634,144.645996 
	C136.387634,140.664032 136.695343,137.000824 136.311615,133.411560 
	C135.804459,128.667770 131.767502,125.539688 127.455086,127.258736 
	C121.754112,129.531296 116.438950,125.907631 110.172401,127.126854 
M66.698357,143.997391 
	C71.742104,146.486588 77.197830,146.632019 81.265350,143.119980 
	C83.209358,141.441452 82.687492,136.907043 83.306046,133.537933 
	C81.663673,133.238007 81.030495,133.028046 80.398148,133.030533 
	C79.591232,133.033722 78.784996,133.208511 77.868904,133.323029 
	C77.699097,134.253616 77.500458,135.052872 77.413994,135.864105 
	C76.942078,140.291763 74.978638,141.577225 70.921288,140.084564 
	C67.352844,138.771759 65.661880,134.904327 66.956451,131.016525 
	C68.212585,127.244164 72.664757,125.280281 76.881683,127.358917 
	C79.864555,128.829239 81.436989,128.427948 82.704552,125.594528 
	C77.384346,120.320023 68.399162,120.454872 63.540527,125.629700 
	C59.974773,129.427490 59.103710,139.539078 66.698357,143.997391 
M194.749756,143.794998 
	C199.854675,144.343582 204.959595,144.892151 210.769562,145.516495 
	C210.769562,138.053696 210.598007,131.623840 210.828979,125.208473 
	C210.986801,120.825241 209.182800,119.954872 205.349518,121.317528 
	C205.144424,123.454071 204.943771,125.544571 204.729080,127.781219 
	C199.768097,126.368858 195.348801,126.486664 192.579208,131.094757 
	C189.979126,135.420792 190.542770,139.649124 194.749756,143.794998 
M172.052505,141.344986 
	C177.207809,146.347672 182.817322,146.776993 189.140717,141.350464 
	C186.259598,141.054245 184.568390,140.935562 182.894974,140.693771 
	C180.988861,140.418320 179.098602,140.033035 177.201462,139.695496 
	C177.311569,139.109863 177.421677,138.524246 177.531784,137.938629 
	C180.470200,137.938629 183.412018,137.850403 186.346024,137.963974 
	C189.156372,138.072739 189.826965,136.703232 189.318542,134.241409 
	C188.482468,130.193176 185.926773,127.809418 181.980270,127.093079 
	C173.893127,125.625175 169.144333,131.959686 172.052505,141.344986 
M223.988022,141.012360 
	C226.518768,145.774246 230.982147,146.646805 240.873337,144.112732 
	C240.873337,141.762497 240.885223,139.294235 240.871140,136.826126 
	C240.824234,128.606094 235.408798,124.909042 227.633926,127.615822 
	C224.477295,128.714783 223.973495,130.122482 226.318039,132.398407 
	C229.121445,132.398407 231.821152,132.398407 234.520844,132.398407 
	C234.547653,132.836243 234.574463,133.274094 234.601273,133.711929 
	C232.561813,134.096024 230.525635,134.498581 228.482147,134.859863 
	C225.422012,135.400909 223.722504,137.052536 223.988022,141.012360 
M90.288338,141.624054 
	C91.789909,144.832291 92.617805,147.492447 87.229912,146.992569 
	C86.326370,146.908752 85.246315,148.727356 84.029182,149.872635 
	C88.547615,152.739349 92.758591,152.839401 94.883820,149.092560 
	C98.723557,142.322968 101.495102,134.947495 104.945488,127.309761 
	C96.001587,126.387207 98.475739,134.782455 94.699883,137.254669 
	C90.801941,134.703568 93.452362,125.801537 84.301979,127.475822 
	C86.311623,132.194977 88.161972,136.540070 90.288338,141.624054 
M220.873749,138.376099 
	C220.873749,134.773163 220.873749,131.170242 220.873749,127.084618 
	C218.527283,127.223320 216.997940,127.313721 215.446869,127.405411 
	C215.446869,133.494858 215.446869,139.052124 215.446869,145.021790 
	C217.396118,144.896973 218.940521,144.798080 220.873596,144.674301 
	C220.873596,142.586807 220.873596,140.949158 220.873749,138.376099 
M221.031326,123.099854 
	C220.180832,121.782715 219.539139,120.196716 218.370514,119.289230 
	C217.941498,118.956078 215.902878,119.970787 215.277008,120.852371 
	C214.802338,121.521004 215.311752,123.875748 215.539429,123.898224 
	C217.255280,124.067612 219.009811,123.845116 221.031326,123.099854 
z"/>
<path fill="#E6DCD5" opacity="1.000000" stroke="none" 
	d="
M95.999802,188.587082 
	C74.207405,188.586945 52.915009,188.586945 31.294174,188.586945 
	C31.294174,155.937576 31.294174,123.864784 31.294174,91.375717 
	C110.961449,91.375717 190.647690,91.375717 270.687012,91.375717 
	C270.687012,123.471466 270.687012,155.543671 270.687012,188.211319 
	C269.019226,188.332565 267.275146,188.568253 265.530853,188.569794 
	C239.039566,188.593216 212.548294,188.587692 186.057007,188.580124 
	C184.892685,188.579788 183.683105,188.668961 182.582108,188.381409 
	C181.979126,188.223938 181.069061,187.248352 181.163986,186.846237 
	C181.337524,186.111069 182.063614,185.109543 182.721451,184.966858 
	C184.159531,184.654922 185.699203,184.781296 187.197388,184.780899 
	C211.689316,184.774399 236.181259,184.782104 260.673187,184.764297 
	C262.618805,184.762894 264.564301,184.597565 266.798706,184.495178 
	C266.798706,154.620926 266.798706,125.193336 266.798706,95.326065 
	C189.704926,95.326065 112.686234,95.326065 35.201790,95.326065 
	C35.096733,96.943962 34.903057,98.546944 34.901913,100.150047 
	C34.883137,126.474701 35.008251,152.800415 34.779213,179.123093 
	C34.737629,183.902313 36.385323,184.895340 40.777489,184.862320 
	C64.934830,184.680679 89.094261,184.776001 113.252975,184.776398 
	C114.419258,184.776413 115.656815,184.529434 116.734444,184.838867 
	C118.202766,185.260437 119.549088,186.106888 120.947716,186.771164 
	C119.462791,187.375397 117.991631,188.458206 116.490562,188.501358 
	C109.831665,188.692856 103.164177,188.586105 95.999802,188.587082 
z"/>
<path fill="#EDDDD3" opacity="1.000000" stroke="none" 
	d="
M167.127289,129.642776 
	C167.184845,134.885590 167.184845,139.679916 167.184845,144.739380 
	C165.460266,144.739380 164.028687,144.739380 162.230225,144.739380 
	C162.023529,141.524094 161.819382,138.348404 161.615234,135.172699 
	C161.257355,135.075745 160.899460,134.978790 160.541565,134.881836 
	C159.574844,136.306641 158.554932,137.698578 157.651016,139.162186 
	C154.507477,144.252243 153.773102,144.279800 150.698135,139.362320 
	C149.838272,137.987244 148.927734,136.643829 146.953445,135.382462 
	C146.730377,138.346039 146.507294,141.309616 146.257538,144.627686 
	C144.591827,144.627686 143.074631,144.627686 141.279907,144.627686 
	C141.279907,137.204132 141.279907,129.955154 141.279907,122.043732 
	C150.201736,121.910339 148.980347,131.903305 154.500412,134.747726 
	C157.315155,130.590851 160.078339,126.322510 163.110901,122.255005 
	C163.517120,121.710121 165.284500,122.180069 167.069748,122.180069 
	C167.069748,124.623192 167.069748,126.908737 167.127289,129.642776 
z"/>
<path fill="#DDD9D1" opacity="1.000000" stroke="none" 
	d="
M133.924805,199.054520 
	C133.554779,195.869095 132.562759,192.587387 133.035645,189.532440 
	C133.345566,187.530136 135.828033,186.216507 138.101578,188.497742 
	C139.152206,189.551987 140.260406,190.548859 142.481476,192.648361 
	C144.717911,189.894211 146.713623,187.012512 149.145477,184.563980 
	C151.459976,182.233627 154.229919,180.355637 156.857300,178.232147 
	C155.401794,176.421799 154.770538,175.856369 154.416245,175.151688 
	C153.597366,173.523071 151.996277,171.572906 152.373123,170.213547 
	C153.060471,167.734238 155.157578,168.159927 157.625076,168.781815 
	C160.195175,169.429535 163.188721,168.175491 165.980515,168.265762 
	C167.232040,168.306198 169.435486,169.511993 169.505325,170.333633 
	C169.857056,174.470551 169.760849,178.659805 169.591614,182.821335 
	C169.492111,185.268295 166.461777,186.569397 164.454987,185.103195 
	C163.139099,184.141800 162.008011,182.927490 160.921570,181.942017 
	C156.061569,186.870026 151.442917,191.553314 146.597961,196.466064 
	C146.550690,196.364990 146.748962,196.792465 146.950180,197.218567 
	C147.921585,199.275864 150.067261,201.658691 149.606461,203.317856 
	C148.799164,206.224792 146.140991,204.781372 143.803543,204.222031 
	C141.669647,203.711380 139.223984,204.630951 136.909149,204.700241 
	C135.563110,204.740540 134.204102,204.347931 132.850937,204.150116 
	C133.126129,202.656540 133.401337,201.162994 134.071381,199.061508 
	C136.690216,199.993515 138.914215,201.533447 141.138214,203.073395 
	C141.503036,202.625473 141.867844,202.177551 142.232666,201.729630 
	C140.047928,199.760208 137.863205,197.790771 135.483566,195.645630 
	C134.883530,196.957840 134.404160,198.006180 133.924805,199.054520 
M165.560638,177.723160 
	C165.998947,176.848022 167.024170,175.457489 166.781113,175.180695 
	C165.100662,173.267044 163.155945,171.585464 160.765152,169.327972 
	C160.387695,171.188416 160.201920,172.104050 159.336166,173.266922 
	C157.824509,172.232086 156.312851,171.197250 154.801193,170.162415 
	C154.054901,170.971237 153.308609,171.780060 152.562317,172.588882 
	C156.680588,176.781372 160.798874,180.973877 164.917145,185.166367 
	C165.701447,184.429764 166.485733,183.693161 167.270035,182.956573 
	C166.507263,181.300949 165.744492,179.645325 165.560638,177.723160 
M146.435425,189.855698 
	C145.410233,191.007248 144.385025,192.158798 143.359818,193.310349 
	C143.275085,193.208511 143.190353,193.106689 143.105621,193.004868 
	C147.860809,188.232346 152.615997,183.459824 157.371201,178.687286 
	C157.432541,178.721008 157.493896,178.754730 157.555252,178.788467 
	C154.010635,182.312988 150.466034,185.837509 146.435425,189.855698 
M146.713196,199.824631 
	C143.115601,196.345718 139.518021,192.866806 135.920425,189.387894 
	C135.398270,189.952408 134.876129,190.516922 134.353973,191.081436 
	C138.150711,194.856262 141.691956,198.951431 145.852859,202.269577 
	C147.907349,203.907944 148.610001,202.361008 146.713196,199.824631 
z"/>
<path fill="#EADDD3" opacity="1.000000" stroke="none" 
	d="
M110.580299,127.209854 
	C116.438950,125.907631 121.754112,129.531296 127.455086,127.258736 
	C131.767502,125.539688 135.804459,128.667770 136.311615,133.411560 
	C136.695343,137.000824 136.387634,140.664032 136.387634,144.645996 
	C134.580750,144.645996 133.057358,144.645996 130.937210,144.645996 
	C130.937210,141.483170 131.215347,138.489716 130.809891,135.591904 
	C130.630112,134.307083 129.068390,133.215637 128.133987,132.036407 
	C126.857819,133.072754 124.761864,133.919373 124.469307,135.183395 
	C123.774673,138.184616 123.934418,141.383560 123.734467,144.745087 
	C122.100204,144.745087 120.693169,144.745087 118.860184,144.745087 
	C118.860184,141.872559 119.285957,139.136688 118.711868,136.629776 
	C118.323174,134.932419 116.528465,133.557037 115.362610,132.037659 
	C114.230759,133.571350 112.491737,134.969086 112.110718,136.670868 
	C111.552567,139.163803 111.967033,141.874527 111.967033,144.744110 
	C109.962059,144.744110 108.530373,144.744110 106.287270,144.744110 
	C106.287270,139.490479 106.139702,134.253036 106.459732,129.044312 
	C106.503510,128.331818 108.877357,127.762474 110.580299,127.209854 
z"/>
<path fill="#EADDD3" opacity="1.000000" stroke="none" 
	d="
M66.370926,143.814880 
	C59.103710,139.539078 59.974773,129.427490 63.540527,125.629700 
	C68.399162,120.454872 77.384346,120.320023 82.704552,125.594528 
	C81.436989,128.427948 79.864555,128.829239 76.881683,127.358917 
	C72.664757,125.280281 68.212585,127.244164 66.956451,131.016525 
	C65.661880,134.904327 67.352844,138.771759 70.921288,140.084564 
	C74.978638,141.577225 76.942078,140.291763 77.413994,135.864105 
	C77.500458,135.052872 77.699097,134.253616 77.868904,133.323029 
	C78.784996,133.208511 79.591232,133.033722 80.398148,133.030533 
	C81.030495,133.028046 81.663673,133.238007 83.306046,133.537933 
	C82.687492,136.907043 83.209358,141.441452 81.265350,143.119980 
	C77.197830,146.632019 71.742104,146.486588 66.370926,143.814880 
z"/>
<path fill="#EADDD3" opacity="1.000000" stroke="none" 
	d="
M194.454956,143.561615 
	C190.542770,139.649124 189.979126,135.420792 192.579208,131.094757 
	C195.348801,126.486664 199.768097,126.368858 204.729080,127.781219 
	C204.943771,125.544571 205.144424,123.454071 205.349518,121.317528 
	C209.182800,119.954872 210.986801,120.825241 210.828979,125.208473 
	C210.598007,131.623840 210.769562,138.053696 210.769562,145.516495 
	C204.959595,144.892151 199.854675,144.343582 194.454956,143.561615 
M197.872086,139.375961 
	C201.763672,141.527313 204.617828,140.812317 204.901123,137.342682 
	C205.029770,135.767120 204.346527,133.595993 203.226089,132.615540 
	C202.333481,131.834457 199.213501,131.888107 198.840912,132.554504 
	C197.850235,134.326340 197.810165,136.629654 197.872086,139.375961 
z"/>
<path fill="#E7DCD2" opacity="1.000000" stroke="none" 
	d="
M171.861847,141.025375 
	C169.144333,131.959686 173.893127,125.625175 181.980270,127.093079 
	C185.926773,127.809418 188.482468,130.193176 189.318542,134.241409 
	C189.826965,136.703232 189.156372,138.072739 186.346024,137.963974 
	C183.412018,137.850403 180.470200,137.938629 177.531784,137.938629 
	C177.421677,138.524246 177.311569,139.109863 177.201462,139.695496 
	C179.098602,140.033035 180.988861,140.418320 182.894974,140.693771 
	C184.568390,140.935562 186.259598,141.054245 189.140717,141.350464 
	C182.817322,146.776993 177.207809,146.347672 171.861847,141.025375 
z"/>
<path fill="#E7DCD2" opacity="1.000000" stroke="none" 
	d="
M223.962708,140.662170 
	C223.722504,137.052536 225.422012,135.400909 228.482147,134.859863 
	C230.525635,134.498581 232.561813,134.096024 234.601273,133.711929 
	C234.574463,133.274094 234.547653,132.836243 234.520844,132.398407 
	C231.821152,132.398407 229.121445,132.398407 226.318039,132.398407 
	C223.973495,130.122482 224.477295,128.714783 227.633926,127.615822 
	C235.408798,124.909042 240.824234,128.606094 240.871140,136.826126 
	C240.885223,139.294235 240.873337,141.762497 240.873337,144.112732 
	C230.982147,146.646805 226.518768,145.774246 223.962708,140.662170 
z"/>
<path fill="#EADDD3" opacity="1.000000" stroke="none" 
	d="
M90.150330,141.254608 
	C88.161972,136.540070 86.311623,132.194977 84.301979,127.475822 
	C93.452362,125.801537 90.801941,134.703568 94.699883,137.254669 
	C98.475739,134.782455 96.001587,126.387207 104.945488,127.309761 
	C101.495102,134.947495 98.723557,142.322968 94.883820,149.092560 
	C92.758591,152.839401 88.547615,152.739349 84.029182,149.872635 
	C85.246315,148.727356 86.326370,146.908752 87.229912,146.992569 
	C92.617805,147.492447 91.789909,144.832291 90.150330,141.254608 
z"/>
<path fill="#E7DCD2" opacity="1.000000" stroke="none" 
	d="
M220.873672,138.843811 
	C220.873596,140.949158 220.873596,142.586807 220.873596,144.674301 
	C218.940521,144.798080 217.396118,144.896973 215.446869,145.021790 
	C215.446869,139.052124 215.446869,133.494858 215.446869,127.405411 
	C216.997940,127.313721 218.527283,127.223320 220.873749,127.084618 
	C220.873749,131.170242 220.873749,134.773163 220.873672,138.843811 
z"/>
<path fill="#EADDD3" opacity="1.000000" stroke="none" 
	d="
M220.891785,123.422455 
	C219.009811,123.845116 217.255280,124.067612 215.539429,123.898224 
	C215.311752,123.875748 214.802338,121.521004 215.277008,120.852371 
	C215.902878,119.970787 217.941498,118.956078 218.370514,119.289230 
	C219.539139,120.196716 220.180832,121.782715 220.891785,123.422455 
z"/>
<path fill="#59AFA1" opacity="1.000000" stroke="none" 
	d="
M164.981720,177.989700 
	C165.744492,179.645325 166.507263,181.300949 167.270035,182.956573 
	C166.485733,183.693161 165.701447,184.429764 164.917145,185.166367 
	C160.798874,180.973877 156.680588,176.781372 152.562317,172.588882 
	C153.308609,171.780060 154.054901,170.971237 154.801193,170.162415 
	C156.312851,171.197250 157.824509,172.232086 159.667786,173.132980 
	C159.999420,172.999039 159.982346,172.978668 159.930328,173.311691 
	C160.259323,173.769012 160.640335,173.893326 161.011414,174.008057 
	C161.001511,173.998474 160.982346,173.978668 160.930328,174.311691 
	C161.259323,174.769012 161.640335,174.893326 162.011414,175.008057 
	C162.001511,174.998474 161.982346,174.978668 161.930328,175.311691 
	C162.259323,175.769028 162.640335,175.893341 163.011414,176.008057 
	C163.001511,175.998474 162.982346,175.978668 162.930328,176.311691 
	C163.259323,176.769028 163.640335,176.893341 164.011414,177.008057 
	C164.001511,176.998474 163.982346,176.978668 163.930328,177.311676 
	C164.259338,177.769012 164.640335,177.893326 165.011688,178.010223 
	C165.002045,178.002838 164.981720,177.989700 164.981720,177.989700 
z"/>
<path fill="#59AFA1" opacity="1.000000" stroke="none" 
	d="
M146.678421,189.608856 
	C150.466034,185.837509 154.010635,182.312988 157.555252,178.788467 
	C157.493896,178.754730 157.432541,178.721008 157.371201,178.687286 
	C152.615997,183.459824 147.860809,188.232346 143.105621,193.004868 
	C143.190353,193.106689 143.275085,193.208511 143.359818,193.310349 
	C144.385025,192.158798 145.410233,191.007248 146.678421,189.608856 
z"/>
<path fill="#47AA9D" opacity="1.000000" stroke="none" 
	d="
M146.953812,200.082031 
	C148.610001,202.361008 147.907349,203.907944 145.852859,202.269577 
	C141.691956,198.951431 138.150711,194.856262 134.353973,191.081436 
	C134.876129,190.516922 135.398270,189.952408 135.920425,189.387894 
	C139.518021,192.866806 143.115601,196.345718 146.953812,200.082031 
z"/>
<path fill="#59AFA1" opacity="1.000000" stroke="none" 
	d="
M160.007782,173.009369 
	C160.201920,172.104050 160.387695,171.188416 160.765152,169.327972 
	C163.155945,171.585464 165.100662,173.267044 166.781113,175.180695 
	C167.024170,175.457489 165.998947,176.848022 165.271179,177.856430 
	C164.981720,177.989700 165.002045,178.002838 164.992325,177.717529 
	C164.649185,177.281036 164.315765,177.129852 163.982346,176.978668 
	C163.982346,176.978668 164.001511,176.998474 163.992065,176.715347 
	C163.649185,176.281036 163.315765,176.129852 162.982346,175.978668 
	C162.982346,175.978668 163.001511,175.998474 162.992065,175.715347 
	C162.649185,175.281036 162.315765,175.129852 161.982346,174.978668 
	C161.982346,174.978668 162.001511,174.998474 161.992065,174.715347 
	C161.649185,174.281036 161.315765,174.129852 160.982346,173.978668 
	C160.982346,173.978668 161.001511,173.998474 160.992065,173.715332 
	C160.649185,173.281021 160.315765,173.129837 159.982346,172.978668 
	C159.982346,172.978668 159.999420,172.999039 160.007782,173.009369 
z"/>
<path fill="#59AFA1" opacity="1.000000" stroke="none" 
	d="
M133.954895,199.033295 
	C134.404160,198.006180 134.883530,196.957840 135.483566,195.645630 
	C137.863205,197.790771 140.047928,199.760208 142.232666,201.729630 
	C141.867844,202.177551 141.503036,202.625473 141.138214,203.073395 
	C138.914215,201.533447 136.690216,199.993515 134.197479,198.757385 
	C133.928757,199.061188 133.984985,199.012054 133.954895,199.033295 
z"/>
<path fill="#47AA9D" opacity="1.000000" stroke="none" 
	d="
M197.632065,139.048798 
	C197.810165,136.629654 197.850235,134.326340 198.840912,132.554504 
	C199.213501,131.888107 202.333481,131.834457 203.226089,132.615540 
	C204.346527,133.595993 205.029770,135.767120 204.901123,137.342682 
	C204.617828,140.812317 201.763672,141.527313 197.632065,139.048798 
z"/>
<path fill="#DDD9D1" opacity="1.000000" stroke="none" 
	d="
M159.930328,173.311676 
	C160.315765,173.129837 160.649185,173.281021 161.001968,173.724915 
	C160.640335,173.893326 160.259323,173.769012 159.930328,173.311676 
z"/>
<path fill="#DDD9D1" opacity="1.000000" stroke="none" 
	d="
M160.930328,174.311691 
	C161.315765,174.129852 161.649185,174.281036 162.001968,174.724930 
	C161.640335,174.893326 161.259323,174.769012 160.930328,174.311691 
z"/>
<path fill="#DDD9D1" opacity="1.000000" stroke="none" 
	d="
M161.930328,175.311691 
	C162.315765,175.129852 162.649185,175.281036 163.001968,175.724930 
	C162.640335,175.893341 162.259323,175.769028 161.930328,175.311691 
z"/>
<path fill="#DDD9D1" opacity="1.000000" stroke="none" 
	d="
M162.930328,176.311691 
	C163.315765,176.129852 163.649185,176.281036 164.001968,176.724930 
	C163.640335,176.893341 163.259323,176.769028 162.930328,176.311691 
z"/>
<path fill="#DDD9D1" opacity="1.000000" stroke="none" 
	d="
M163.930328,177.311676 
	C164.315765,177.129852 164.649185,177.281036 165.001968,177.724915 
	C164.640335,177.893326 164.259338,177.769012 163.930328,177.311676 
z"/>
</svg>